<svg xmlns="http://www.w3.org/2000/svg" width="168" height="50" viewBox="0 0 168 50">
  <defs>
    <style>
      .cls-1 {
        fill: #6a1111;
        fill-rule: evenodd;
      }
    </style>
  </defs>
  <path id="Color_Fill_3" data-name="Color Fill 3" class="cls-1" d="M12.166,18.85V35.826L9.92,37.665H26.912q-1.611-1.627-3.141-6.071a6.25,6.25,0,0,1-1.782,3.784,5.833,5.833,0,0,1-3.914,1.147q-0.668,0-1.4-.065V19.371l1.579-1.611L18.025,17.4l-1.758,1.774V36.461H16.121l-0.586-.049H15.4v-17.4l2.295-2.23H9.92ZM28.377,37.372a23.981,23.981,0,0,1-2.6-4.443l-0.114-.277-0.521-.2L25.2,32.636a18.551,18.551,0,0,0,2.864,4.9L27.6,38.561H10.376L10.782,39H27.775l0.732-1.465Zm7.357-20.589,1.725,1.855-2.213,6.087a12.49,12.49,0,0,0-1.66-1.318l-0.26.358,0.147,0.114q0.553,0.439,1.367,1.156l0.2,0.163-0.293.716a8.289,8.289,0,0,1-.9-0.733L33.113,24.5q-0.049-.049-0.277-0.26a11.686,11.686,0,0,1-1.383,2.783,4.464,4.464,0,0,1,2.49.9l-0.065.228a25.665,25.665,0,0,1-2.694,6.283A9.69,9.69,0,0,1,27.5,37.665h8.138q-0.2-.211-0.293-0.309a8.1,8.1,0,0,1-1.3-1.644,3.3,3.3,0,0,1-.309-1.514,7.38,7.38,0,0,1,.44-2.214l0.537-1.66q0.325-1.009.537-1.53l0.716,0.749a14.624,14.624,0,0,0-1.351,4.948,4.028,4.028,0,0,0,.334,1.7,10.593,10.593,0,0,0,1.408,2.026l0.277,0.342H28.344L28.67,39h8.789q-0.244-.309-0.358-0.456a15.978,15.978,0,0,1-1.684-2.368,3.883,3.883,0,0,1-.35-1.733,11.732,11.732,0,0,1,1.253-4.525l0.163,0.2q1.318,1.725,2.165,3.076l0.293,0.472a14.468,14.468,0,0,1,3.206-3.743l0.309,0.716-0.13.163a20.722,20.722,0,0,0-2.865,3.564l0.374,0.1a18.024,18.024,0,0,1,2.751-3.434l1.807,4.753-2.246,1.888h8.219l-2.441-1.888-2.946-7.991a4.094,4.094,0,0,1,2.262-.488q0.211,0,.684.033a11.283,11.283,0,0,1-1.3-3.32,4.687,4.687,0,0,1-.618.553l-0.537.456q-0.033.033-.228,0.179L42.96,19.127l1.644-1.9-0.423-.179-1.725,1.986,2.409,6.413-0.651.358-2.669-7.1,1.693-1.921h-7.5ZM41.446,28a14.5,14.5,0,0,0-1.66,1.742l-0.163-.244a16.257,16.257,0,0,0-1.367-1.823l-0.667-.749a1.717,1.717,0,0,0-.163-0.2l1.79-4.72ZM38.94,21.373l-2.083,5.5a16.963,16.963,0,0,1,2.653,3.174q-0.13.146-.179,0.212l-0.228.277a1.3,1.3,0,0,1-.163.179q-0.146-.2-0.163-0.212l-0.749-1.042A22.685,22.685,0,0,0,35.9,26.956l2.588-6.836Zm8.61,3.109a14.109,14.109,0,0,0,1.4,3.467l0.2,0.358a14.574,14.574,0,0,0-1.953-.146,4.979,4.979,0,0,0-1.269.146l2.9,7.666,2.93,2.588H43.107L43.416,39H52.84l-3.63-3.206-2.718-7.21c0.174-.011.282-0.016,0.326-0.016q0.407,0,1.3.081l1.318,0.114q0.049,0,.407.049a17.589,17.589,0,0,1-1.79-4.02Zm6.738-5.7a9.781,9.781,0,0,1,1.546.765v8.008a6.3,6.3,0,0,1-.814.049q-0.407,0-1.139-.049l-0.049.146q-0.2.668-.228,0.732a7.793,7.793,0,0,0-.325,1.058l0.179-.065a8.761,8.761,0,0,1,2.393-.423v0.846l-0.13.032-0.863.212a9.518,9.518,0,0,0-1.123.374L53.881,30.8l0.13-.049a16.649,16.649,0,0,1,1.709-.472l0.13-.016v5.469l-2.116,1.937h7.194l-1.855-1.937V28.469l0.179-.033a28.72,28.72,0,0,0,3.809-.635q0.065,0.146.081,0.2l0.163,0.472c0.011,0.033.049,0.114,0.114,0.244a10.825,10.825,0,0,1-3.109.733l-0.342.049v6.559l2.36,2.506H54.581L54.842,39h8.415l-2.864-3.06V29.853l0.13-.016a11.872,11.872,0,0,0,3.011-.83L63.6,29.169a46.8,46.8,0,0,1,2.913,10.677l0.081,0.521,0.244-.163a21.459,21.459,0,0,1,4.753-2.344l0.244-.081a19.52,19.52,0,0,1-3.865-4.492,28.851,28.851,0,0,1-3.052-6.022,8.555,8.555,0,0,0,4-2.108,4.586,4.586,0,0,0,1.465-3.345A4.451,4.451,0,0,0,68.147,18a10.026,10.026,0,0,0-5.689-1.5,16.311,16.311,0,0,0-8.3,2.23Zm7.666-1.107a5.292,5.292,0,0,1,3.532,1.18,3.74,3.74,0,0,1,1.4,2.987,4.026,4.026,0,0,1-1.554,3.28,10.61,10.61,0,0,1-4.761,1.847L60.392,27V19.322a6.937,6.937,0,0,1,1.741-.2,5.843,5.843,0,0,1,2.181.366,8.7,8.7,0,0,1,2.116,1.343q-1.14-2.083-4.313-2.083A8.249,8.249,0,0,0,59.969,19V27a4.725,4.725,0,0,1-.9.081V18.313a5.983,5.983,0,0,1,2.881-.635h0ZM71.7,22.4A4.926,4.926,0,0,0,70.06,18.59a6.322,6.322,0,0,1,1.286,3.483q0,3.874-4.98,5.762l0.1,0.277q2.686,6.869,7.373,9.993A23.192,23.192,0,0,0,67.211,41.1l0.326,0.26,0.147-.1a25.71,25.71,0,0,1,7-3.027,17.187,17.187,0,0,1-4.118-3.6,19.491,19.491,0,0,1-3.63-6.559Q71.7,26.142,71.7,22.4h0Zm10.433-5.615,1.725,1.855-2.213,6.087a12.49,12.49,0,0,0-1.66-1.318l-0.26.358,0.147,0.114q0.553,0.439,1.367,1.156l0.2,0.163-0.293.716a8.289,8.289,0,0,1-.9-0.733L79.516,24.5q-0.049-.049-0.277-0.26a11.683,11.683,0,0,1-1.383,2.783,4.464,4.464,0,0,1,2.49.9l-0.065.228a25.665,25.665,0,0,1-2.694,6.283A9.69,9.69,0,0,1,73.9,37.665h8.138q-0.2-.211-0.293-0.309a8.1,8.1,0,0,1-1.3-1.644,3.3,3.3,0,0,1-.309-1.514,7.382,7.382,0,0,1,.439-2.214l0.537-1.66q0.326-1.009.537-1.53l0.716,0.749a14.624,14.624,0,0,0-1.351,4.948,4.028,4.028,0,0,0,.334,1.7,10.593,10.593,0,0,0,1.408,2.026l0.277,0.342H74.747L75.073,39h8.789q-0.244-.309-0.358-0.456a15.978,15.978,0,0,1-1.684-2.368,3.883,3.883,0,0,1-.35-1.733,11.732,11.732,0,0,1,1.253-4.525l0.163,0.2Q84.2,31.839,85.05,33.19l0.293,0.472a14.468,14.468,0,0,1,3.206-3.743l0.309,0.716-0.13.163a20.726,20.726,0,0,0-2.865,3.564l0.374,0.1a18.024,18.024,0,0,1,2.751-3.434L90.8,35.777l-2.246,1.888h8.219l-2.441-1.888-2.946-7.991a4.094,4.094,0,0,1,2.262-.488q0.211,0,.684.033a11.281,11.281,0,0,1-1.3-3.32,4.7,4.7,0,0,1-.618.553l-0.537.456c-0.022.022-.1,0.081-0.228,0.179l-2.279-6.071,1.644-1.9-0.423-.179-1.725,1.986,2.409,6.413-0.651.358-2.669-7.1,1.693-1.921h-7.5ZM87.849,28a14.5,14.5,0,0,0-1.66,1.742l-0.163-.244a16.257,16.257,0,0,0-1.367-1.823l-0.667-.749a1.711,1.711,0,0,0-.163-0.2l1.79-4.72Zm-2.507-6.624-2.083,5.5a16.966,16.966,0,0,1,2.653,3.174q-0.131.146-.179,0.212l-0.228.277a1.308,1.308,0,0,1-.163.179c-0.1-.13-0.152-0.2-0.163-0.212l-0.749-1.042A22.685,22.685,0,0,0,82.3,26.956l2.588-6.836Zm8.61,3.109a14.114,14.114,0,0,0,1.4,3.467l0.2,0.358a14.574,14.574,0,0,0-1.953-.146,4.98,4.98,0,0,0-1.27.146l2.9,7.666,2.93,2.588H89.51L89.819,39h9.424l-3.63-3.206L92.9,28.583c0.173-.011.282-0.016,0.326-0.016q0.407,0,1.3.081l1.318,0.114q0.049,0,.407.049a17.585,17.585,0,0,1-1.79-4.02Zm20.475-10.075-0.309.065a3.834,3.834,0,0,1,1.221,2.848,19.711,19.711,0,0,1-1.547,5.746l-3.45,9.212L105.834,19.4l1.449-1.432-0.293-.309-1.66,1.644,4.8,13.542L109.5,34.361l-5.372-15.283,2.3-2.295H98.348l2.507,2.148,5.957,16.96-2.148,1.774h7.5l-1.937-1.693,4.753-12.435a54.184,54.184,0,0,1,3.239-7.324,19.85,19.85,0,0,1,3.483-4.394l-0.179-.179a16.621,16.621,0,0,1-7.1,2.767h0Zm4.964,1.766a31.065,31.065,0,0,0-2.767,5.477l-0.878,2.311-4.672,12.191,2.051,2.409h-7.8L105.688,39h8.4l-2.539-2.962,4.59-11.963q3.3-8.643,6.413-11.068l-0.147-.374A13.624,13.624,0,0,0,119.392,16.173Zm1.335,0.61,2.474,1.953v6.95a3.258,3.258,0,0,0-3.418,2.6,4.442,4.442,0,0,1,3.027-1.221c0.076,0,.206.011,0.391,0.032v0.765a5.8,5.8,0,0,0-2.7.928l0.228,0.342a6,6,0,0,1,2.474-.846V35.55l-2.474,1.888h18.245a12.965,12.965,0,0,1-2.075-2.507,10.576,10.576,0,0,1-1.05-2.865q-0.145.261-.2,0.358l-0.862,1.481a3.948,3.948,0,0,1-2.2,1.855,16.451,16.451,0,0,1-4.72.472V28.29h3.548L131,27.867h-3.532v8.366h-1.041V27.1h4.443l2.1,2.718V22.805l-2.1,2.881h-2.995V19.5l0.342-.016q1.335-.065,1.855-0.065a8.771,8.771,0,0,1,2.312.2,7.893,7.893,0,0,1,1.9,1.237c0.065,0.054.173,0.136,0.325,0.244a4.081,4.081,0,0,0-1.741-1.709,7.864,7.864,0,0,0-3.044-.439q-1.122,0-2.36.114v6.624h-1.041V18.2q1.708-.081,2.929-0.081a8.289,8.289,0,0,1,3.679.57,5.329,5.329,0,0,1,1.92,2.523c0.054,0.119.136,0.3,0.244,0.553a16.245,16.245,0,0,1,2.637-4.671l0.261-.309H120.727Zm17.92,0.8a19.322,19.322,0,0,0-2.816,4.622l0.277,0.342a19.228,19.228,0,0,1,2.653-4.476l0.114-.146Zm-4.964,5.55v7.194l0.407,0.212V23.342Zm6.885,14.144a13.309,13.309,0,0,1-3.028-4.167l-0.521-.2a12.59,12.59,0,0,0,3.3,4.622l-0.553,1.025H121.948l0.26,0.44h17.774l0.846-1.465Zm2.848-18.424V35.826l-2.246,1.839h16.992q-1.611-1.627-3.141-6.071a6.247,6.247,0,0,1-1.783,3.784,5.831,5.831,0,0,1-3.914,1.147q-0.668,0-1.4-.065V19.371L149.5,17.76l-0.228-.358-1.758,1.774V36.461h-0.146l-0.586-.049h-0.13v-17.4l2.295-2.23h-7.78Zm16.211,18.522a23.936,23.936,0,0,1-2.6-4.443l-0.114-.277-0.521-.2,0.065,0.179a18.566,18.566,0,0,0,2.864,4.9l-0.472,1.025h-17.22L142.032,39h16.993l0.732-1.465Z"/>
</svg>
